<svg xmlns="http://www.w3.org/2000/svg" xmlns:svg="http://www.w3.org/2000/svg" width="971.645" height="146.052"><defs><clipPath id="a" clipPathUnits="userSpaceOnUse"><path d="M0 595h842V0H0z"/></clipPath></defs><g transform="matrix(1.33333 0 0 -1.33333 -75.098 469.692)"><g><g clip-path="url(#a)"><g transform="translate(754.889 295.412)"><path fill="#4695d7" d="M0 0c0 6.188-2.669 11.874-8.007 17.057-5.337 5.183-11.1 7.775-17.289 7.775-6.808 0-12.571-2.592-17.29-7.775-4.719-5.183-7.078-11.024-7.078-17.522 0-5.414 2.515-10.791 7.543-16.129 5.028-5.338 10.404-8.006 16.129-8.006 6.652 0 12.455 2.01 17.405 6.034C-2.862-13.926 0-7.736 0 0m30.169-50.592H0v7.194a45.892 45.892 0 00-13.886-6.961c-5.066-1.549-10.018-2.323-14.814-2.323-7.929 0-15.587 1.897-22.898 5.686-7.31 3.791-13.461 9.168-18.411 16.129-6.846 9.902-10.288 20.81-10.288 32.723 0 14.234 5.299 26.959 15.897 38.176C-53.803 51.249-41 56.857-25.992 56.857c14.852 0 27.926-4.951 39.221-14.852 11.292-9.902 16.94-22.047 16.94-36.436zm-126.48 0h-30.168v63.317c0 4.332-1.664 7.929-4.99 10.83-3.327 2.862-6.924 4.293-10.791 4.293-3.094 0-6.227-1.741-9.399-5.221-3.172-3.52-4.758-7.272-4.758-11.295v-61.924h-29.473v61.963c0 4.486-1.664 8.471-4.99 11.952-3.326 3.481-7.001 5.221-11.023 5.221-3.249 0-6.382-1.586-9.399-4.757-3.017-3.172-4.525-6.537-4.525-10.095v-64.284h-30.17v70.318c1.856 10.365 6.46 19.068 13.809 26.107 7.348 7.04 16.206 10.56 26.572 10.56 6.807 0 12.957-1.006 18.449-3.017 5.493-2.011 10.638-4.951 15.434-8.819 4.022 3.636 8.741 6.499 14.156 8.626 5.415 2.127 10.752 3.21 16.013 3.21 11.758 0 22.046-3.713 30.865-11.178 9.593-8.045 14.388-18.295 14.388-30.673zM-298.677 0c0 6.188-2.669 11.874-8.007 17.057-5.337 5.183-11.1 7.775-17.289 7.775-6.807 0-12.57-2.592-17.289-7.775-4.718-5.183-7.078-11.024-7.078-17.522 0-5.414 2.514-10.791 7.542-16.129 5.028-5.338 10.404-8.006 16.129-8.006 6.652 0 12.454 2.01 17.405 6.034 5.725 4.64 8.587 10.83 8.587 18.566m30.169-50.592h-30.169v7.194a45.903 45.903 0 00-13.886-6.961c-5.067-1.549-10.017-2.323-14.814-2.323-7.929 0-15.588 1.897-22.897 5.686-7.31 3.791-13.46 9.168-18.412 16.129-6.846 9.902-10.289 20.81-10.289 32.723 0 14.234 5.299 26.959 15.898 38.176 10.598 11.217 23.4 16.825 38.408 16.825 14.853 0 27.927-4.951 39.22-14.852 11.294-9.902 16.941-22.047 16.941-36.436zM-389.65 28.776c-5.414 0-9.979-.85-13.692-2.553-5.105-2.32-7.658-5.801-7.658-10.442v-66.373h-32.258v70.318c0 11.603 4.758 20.692 14.272 27.268 9.515 6.576 22.628 9.863 39.336 9.863zm-140.171-79.368h-30.865V54.536h30.865zm74.96-.697h-39.685l-27.617 41.773c-2.785 4.178-4.177 8.432-4.177 12.765 0 3.867 1.16 7.658 3.481 11.371l24.368 39.917h36.434l-33.649-51.752z"/></g><g transform="translate(78.489 298.2)"><path fill="#fbc707" fill-rule="evenodd" d="M0 0c0 3.756 1.161 7.416 3.38 11.042l24.789 40.509h-50.334V-.708H.015A18.58 18.58 0 000 0"/></g><g transform="translate(82.545 285.695)"><path fill="#ed1c24" fill-rule="evenodd" d="M0 0c-2.561 3.883-3.924 7.809-4.044 11.814h-22.177v-52.259h52.899z"/></g><g transform="translate(160.899 297.492)"><path fill="#4695d7" fill-rule="evenodd" d="M0 0v52.258h-18.839L-52.748.022"/></g><g transform="translate(108.151 297.514)"><path fill="#78ca2e" fill-rule="evenodd" d="M0 0l39.495-52.264h13.253v52.26"/></g></g></g></g></svg>